:SAMPLES-PER-SECOND 24
:FULLY-SPECIFIED
:DEGREES
244
root  1.13888 39.1661 34.0061 -169.006 -72.8036 163.319
RightUpLeg  -7.80153 -8.17147 -22.555
RightLeg  21.5065 6.24791 2.50588
RightFoot  1.66996 -1.98864 17.4735
RightToes  -1.74623e-010 0 -2.59999e-017
Spine  7.47697 -5.28318 -15.0577
Spine1  9.14063 -9.96051 11.354
HEad  -26.5752 -36.6367 14.3115
LeftShoulder1  1.61526 -3.55323 -16.1396
LeftArm  19.7413 -1.09581 -47.5283
LeftForeArm  48.0057 -77.7987 -60.7669
LeftHand  0.00425837 6.19946 4.75207
RightShoulder  1.97225 3.47855 22.0186
RightArm  -34.5052 -8.32049 15.5686
RightForeArm  47.1224 78.1923 70.4969
RightHand  -0.711591 -2.23965 -25.8914
LeftUpLeg  7.03543 31.0365 16.633
LeftLeg  25.4386 1.13251 0.982103
LeftFoot  -0.19325 1.93204 -19.6253
LeftToes  -6.27559e-011 -2.10356e-011 8.24929e-012
245
root  1.37624 37.9883 34.3901 -170.06 -73.8282 164.435
RightUpLeg  -10.3892 -9.54487 -22.4824
RightLeg  27.6422 4.22578 2.18024
RightFoot  -5.08349 -0.956415 16.7476
RightToes  -1.74623e-010 0 -2.59999e-017
Spine  7.77017 -4.85995 -16.7725
Spine1  10.3452 -10.5889 13.6143
HEad  -27.2661 -35.9454 13.7967
LeftShoulder1  1.53962 -3.1039 -16.5897
LeftArm  16.5389 -4.85277 -43.3808
LeftForeArm  49.066 -78.0219 -63.6422
LeftHand  0.0870211 7.3482 6.95335
RightShoulder  1.99563 3.48442 22.3524
RightArm  -39.2883 -3.28745 9.61404
RightForeArm  75.0725 78.7178 98.8722
RightHand  -0.425664 -3.5863 -26.8997
LeftUpLeg  4.72066 31.1219 17.287
LeftLeg  31.037 -1.99727 -0.92375
LeftFoot  -10.0101 0.305135 -20.9305
LeftToes  -6.27559e-011 -2.10356e-011 8.24929e-012
246
root  1.63441 36.9336 34.5189 -170.037 -77.1191 164.633
RightUpLeg  -13.0486 -11.5572 -22.4837
RightLeg  34.4834 2.99202 1.96918
RightFoot  -9.71935 -0.276277 15.2425
RightToes  -1.74623e-010 0 -2.59999e-017
Spine  6.6733 -4.89785 -18.7969
Spine1  13.9682 -11.7728 15.2188
HEad  -30.0298 -36.0129 16.2006
LeftShoulder1  1.52601 -2.62183 -18.3279
LeftArm  12.7859 -11.0435 -39.0831
LeftForeArm  47.2736 -77.6985 -59.9236
LeftHand  0.272599 8.83991 10.2132
RightShoulder  2.27676 3.98055 24.3202
RightArm  -43.7523 -2.57429 4.97454
RightForeArm  103.23 77.1161 122.15
RightHand  -0.479095 -3.45164 -28.1167
LeftUpLeg  0.577588 28.6158 17.2679
LeftLeg  36.5209 -3.37032 -2.27968
LeftFoot  -17.0248 -0.922035 -20.4625
LeftToes  -6.27559e-011 -2.10356e-011 8.24929e-012
247
root  1.67548 36.6127 34.128 -146.966 -84.2362 141.384
RightUpLeg  -11.8151 -14.6196 -22.4476
RightLeg  39.6296 1.40993 0.973487
RightFoot  -11.0521 -0.123578 18.1809
RightToes  -1.74623e-010 0 -2.59999e-017
Spine  5.84554 -5.26161 -20.263
Spine1  16.5049 -12.8164 15.7938
HEad  -31.0563 -38.5043 19.4955
LeftShoulder1  1.57584 -2.58443 -19.3769
LeftArm  10.7644 -14.6411 -40.0794
LeftForeArm  42.0571 -76.4697 -50.3819
LeftHand  0.37003 9.11427 12.4211
RightShoulder  2.56867 4.39199 26.5328
RightArm  -43.6516 -11.6741 5.84443
RightForeArm  126.306 73.5659 139.943
RightHand  -0.833014 -2.16369 -29.5183
LeftUpLeg  -2.79764 24.603 17.8656
LeftLeg  38.5355 -5.23365 -4.04944
LeftFoot  -18.2139 -1.06766 -19.379
LeftToes  -6.27559e-011 -2.10356e-011 8.24929e-012
248
root  1.37183 37.2555 33.1867 6.68127 -84.7985 -12.5667
RightUpLeg  -7.09239 -17.5369 -21.0888
RightLeg  40.7877 -1.14848 -1.3334
RightFoot  -7.361 -0.831773 21.8445
RightToes  -1.74623e-010 0 -2.59999e-017
Spine  5.94037 -5.77031 -21.6005
Spine1  15.7925 -13.5854 16.7656
HEad  -26.4216 -41.4315 19.1014
LeftShoulder1  1.59442 -2.62416 -19.5248
LeftArm  11.6395 -12.0947 -45.2409
LeftForeArm  38.0844 -75.4363 -45.1918
LeftHand  0.252134 7.96296 12.4259
RightShoulder  2.79793 4.63658 28.4345
RightArm  -39.0348 -26.1599 12.0425
RightForeArm  129.563 72.2903 143.927
RightHand  -0.836008 -2.00641 -28.3892
LeftUpLeg  -4.65036 17.6654 19.1385
LeftLeg  33.9727 -7.87852 -5.25185
LeftFoot  -13.2591 -0.24294 -19.3219
LeftToes  -6.27559e-011 -2.10356e-011 8.24929e-012
249
root  0.937331 38.1866 32.0284 0.321594 -72.7772 -5.50378
RightUpLeg  -3.82111 -17.0861 -18.8101
RightLeg  41.282 -0.488319 -0.738473
RightFoot  -1.66069 -1.72615 20.0578
RightToes  -1.74623e-010 0 -2.59999e-017
Spine  6.25061 -6.76081 -23.454
Spine1  13.2824 -14.335 17.5516
HEad  -17.7998 -39.7491 15.4402
LeftShoulder1  1.59753 -2.61172 -19.6361
LeftArm  13.1298 -6.87783 -48.0471
LeftForeArm  36.39 -75.2102 -44.551
LeftHand  0.121236 6.99421 10.4947
RightShoulder  2.9948 4.88778 29.7831
RightArm  -33.7397 -36.7026 19.6936
RightForeArm  100.978 78.0406 116.016
RightHand  -0.480852 -3.01381 -23.1147
LeftUpLeg  -7.4271 8.65832 19.3337
LeftLeg  26.2406 -5.94512 -2.82744
LeftFoot  -5.42552 1.00099 -18.6042
LeftToes  -6.27559e-011 -2.10356e-011 8.24929e-012
250
root  0.605099 38.6121 30.9561 0.161621 -61.3021 -3.95569
RightUpLeg  -2.82721 -12.2719 -17.396
RightLeg  43.9393 5.35406 5.23057
RightFoot  -0.177951 -1.5679 15.8469
RightToes  -1.74623e-010 0 -2.59999e-017
Spine  6.31416 -7.40731 -24.8211
Spine1  11.9727 -14.4334 16.4643
HEad  -11.3049 -32.489 11.4434
LeftShoulder1  1.70037 -2.91643 -20.0246
LeftArm  14.2588 -4.62325 -47.6209
LeftForeArm  36.1926 -75.0761 -43.9223
LeftHand  0.054017 6.43871 8.65965
RightShoulder  3.26794 5.30156 31.2244
RightArm  -26.1281 -40.6299 20.7721
RightForeArm  38.1729 75.9477 47.6786
RightHand  -0.515867 -1.85296 -16.9863
LeftUpLeg  -12.1974 6.04667 17.1254
LeftLeg  23.9835 -0.275431 0.257969
LeftFoot  0.0789472 1.56554 -15.5463
LeftToes  -6.27559e-011 -2.10356e-011 8.24929e-012
251
root  0.379795 38.3512 30.0442 -0.386475 -51.2382 -3.08527
RightUpLeg  -0.567096 -7.13638 -16.5643
RightLeg  45.4732 9.36081 9.73037
RightFoot  -3.60196 -0.888425 12.7064
RightToes  -1.74623e-010 0 -2.59999e-017
Spine  6.0313 -6.9351 -23.9495
Spine1  13.4469 -13.5498 14.0845
HEad  -8.46005 -21.2292 5.08024
LeftShoulder1  1.82902 -3.24749 -20.6772
LeftArm  14.7079 -6.68804 -46.6204
LeftForeArm  34.5219 -74.4802 -41.6229
LeftHand  0.0321357 6.11376 8.83133
RightShoulder  3.55156 5.73062 32.5849
RightArm  -15.5727 -41.1029 13.7059
RightForeArm  28.861 70.9824 31.2892
RightHand  -0.761436 0.231255 -15.6365
LeftUpLeg  -16.7525 9.42367 13.6669
LeftLeg  27.3664 3.57973 2.37816
LeftFoot  0.106802 1.23661 -12.2395
LeftToes  -6.27559e-011 -2.10356e-011 8.24929e-012
252
root  0.187521 37.8466 29.2053 -0.516418 -42.8266 -3.84857
RightUpLeg  3.49558 -4.27536 -14.9761
RightLeg  42.6469 8.30019 7.86169
RightFoot  -6.94171 -0.42683 9.82101
RightToes  -1.74623e-010 0 -2.59999e-017
Spine  6.1689 -6.05757 -21.0359
Spine1  14.6958 -12.146 11.804
HEad  -6.36647 -5.21938 -3.50773
LeftShoulder1  1.87673 -3.18923 -21.6906
LeftArm  13.3488 -8.14198 -45.201
LeftForeArm  32.9968 -74.1188 -40.4757
LeftHand  0.0741185 6.31555 11.8363
RightShoulder  3.47972 5.74246 31.7558
RightArm  -8.7049 -40.2529 6.43752
RightForeArm  35.1718 72.9295 35.7294
RightHand  -0.681132 -1.00248 -18.0195
LeftUpLeg  -20.2819 11.0925 12.5246
LeftLeg  30.3565 1.82891 1.51979
LeftFoot  -1.57449 0.887541 -10.2663
LeftToes  -6.27559e-011 -2.10356e-011 8.24929e-012
253
root  0.0299332 37.1831 28.1775 -0.373413 -35.9742 -3.67078
RightUpLeg  5.39957 -1.39058 -13.2542
RightLeg  40.5119 7.24274 6.32351
RightFoot  -12.1982 -0.0183701 8.6239
RightToes  -1.74623e-010 0 -2.59999e-017
Spine  6.66917 -5.19605 -17.9784
Spine1  13.8032 -10.1785 9.36477
HEad  -4.47948 14.731 -10.5173
LeftShoulder1  1.94933 -3.15097 -23.0151
LeftArm  9.60228 -4.98907 -41.6571
LeftForeArm  37.4366 -75.4343 -45.4108
LeftHand  0.215368 7.03645 16.2485
RightShoulder  3.08761 5.32543 29.0446
RightArm  -7.47827 -36.2878 4.806
RightForeArm  42.9943 75.5356 44.0667
RightHand  -0.578615 -2.14407 -20.465
LeftUpLeg  -25.6487 9.61268 12.566
LeftLeg  32.688 -2.27858 -1.20205
LeftFoot  0.010479 1.11767 -11.2202
LeftToes  -6.27559e-011 -2.10356e-011 8.24929e-012
